<svg width="32" height="32" viewBox="0 0 32 32" fill="none" xmlns="http://www.w3.org/2000/svg">
<path d="M28 15.7169C28 17.5761 27.4043 19.1473 26.2128 20.4304C25.0213 21.7136 23.5417 22.3552 21.7741 22.3552C19.4697 22.3552 17.5123 21.2029 15.9018 18.8985C15.1293 19.9067 14.2586 20.7185 13.2897 21.3339C12.3339 21.9362 11.3388 22.2373 10.3044 22.2373C8.45827 22.2373 6.94599 21.635 5.76759 20.4304C4.5892 19.2259 4 17.6154 4 15.599C4 13.7136 4.5892 12.1424 5.76759 10.8854C6.95908 9.62848 8.47136 9 10.3044 9C12.6088 9 14.5139 10.1391 16.0196 12.4173C17.6563 10.1915 19.5745 9.07856 21.7741 9.07856C23.6072 9.07856 25.0998 9.6874 26.252 10.9051C27.4173 12.1097 28 13.7136 28 15.7169ZM10.5008 18.2504C11.653 18.2504 12.7398 17.3666 13.761 15.599C13.2635 14.7087 12.7529 14.0475 12.2291 13.6154C11.7054 13.1702 11.1162 12.9476 10.4615 12.9476C9.72831 12.9476 9.13257 13.2029 8.6743 13.7136C8.22913 14.2111 8.00655 14.8527 8.00655 15.6383C8.00655 16.4239 8.22913 17.0589 8.6743 17.5434C9.13257 18.0147 9.74141 18.2504 10.5008 18.2504ZM21.4992 13.0655C20.3601 13.0655 19.2602 13.9362 18.1997 15.6776C19.2471 17.4714 20.3601 18.3682 21.5385 18.3682C22.2717 18.3682 22.8609 18.1064 23.3061 17.5827C23.7512 17.0589 23.9738 16.4239 23.9738 15.6776C23.9738 14.9182 23.7447 14.2962 23.2864 13.8118C22.8282 13.3142 22.2324 13.0655 21.4992 13.0655Z" fill="#58A6FF"/>
</svg>
