<svg width="48" height="48" viewBox="0 0 48 48" fill="none" xmlns="http://www.w3.org/2000/svg">
<path fill-rule="evenodd" clip-rule="evenodd" d="M24 38.9686C29.5228 38.9686 34 34.4633 34 28.9057C34 23.3481 29.5228 18.8428 24 18.8428C18.4772 18.8428 14 23.3481 14 28.9057C14 34.4633 18.4772 38.9686 24 38.9686ZM24 44C32.2843 44 39 37.2421 39 28.9057C39 20.5693 32.2843 13.8113 24 13.8113C15.7157 13.8113 9 20.5693 9 28.9057C9 37.2421 15.7157 44 24 44Z" fill="#FF4500"/>
<path fill-rule="evenodd" clip-rule="evenodd" d="M24 29.1572C29.5228 29.1572 34 24.6519 34 19.0943C34 13.5368 29.5228 9.03145 24 9.03145C18.4772 9.03145 14 13.5368 14 19.0943C14 24.6519 18.4772 29.1572 24 29.1572ZM24 34.1887C32.2843 34.1887 39 27.4307 39 19.0943C39 10.758 32.2843 4 24 4C15.7157 4 9 10.758 9 19.0943C9 27.4307 15.7157 34.1887 24 34.1887Z" fill="#FF4500"/>
</svg>
