<svg width="320" height="41" viewBox="0 0 320 41" fill="none" xmlns="http://www.w3.org/2000/svg">
<path d="M8.04 32V22.16H20.28V18.4H8.04V14.16L9.24 12.96H22.04V9.2H4V32H8.04ZM46.2903 29.12L44.2903 26.4C42.0503 28.08 39.9303 28.88 37.4903 28.88C34.2103 28.88 32.3303 27.32 31.5703 25.48L32.3703 24.92H46.8503C46.8503 19.8 43.7703 14.48 37.0103 14.48C31.4503 14.48 27.3303 18.4 27.3303 23.52C27.3303 28.64 31.4503 32.56 37.4903 32.56C40.4103 32.56 43.3303 31.48 46.2903 29.12ZM32.3703 21.76L31.6503 21.24C32.5703 19.2 34.7303 18.12 37.0103 18.12C39.3303 18.12 41.1703 19.36 42.0103 20.92L41.6503 21.76H32.3703ZM70.8606 29.12L68.8606 26.4C66.6206 28.08 64.5006 28.88 62.0606 28.88C58.7806 28.88 56.9006 27.32 56.1406 25.48L56.9406 24.92H71.4206C71.4206 19.8 68.3406 14.48 61.5806 14.48C56.0206 14.48 51.9006 18.4 51.9006 23.52C51.9006 28.64 56.0206 32.56 62.0606 32.56C64.9806 32.56 67.9006 31.48 70.8606 29.12ZM56.9406 21.76L56.2206 21.24C57.1406 19.2 59.3006 18.12 61.5806 18.12C63.9006 18.12 65.7406 19.36 66.5806 20.92L66.2206 21.76H56.9406ZM88.7909 27.6V7.48H77.4309V10.84H84.1509L85.1909 11.88V27.6L84.1509 28.64H77.4309V32H95.3509V28.64H89.8309L88.7909 27.6ZM130.492 27.04V22.16H142.732V18.4H130.492V14.16L131.692 12.96H144.492V9.2H126.452V32H144.892V28.24H131.692L130.492 27.04ZM154.182 19.48V24.68C154.182 30.16 157.462 32.56 162.102 32.56C165.302 32.56 168.262 30.84 170.222 28.08L167.782 25.28C166.062 27.56 164.622 28.88 162.142 28.88C159.342 28.88 158.262 27.04 158.262 24.12V19.48L159.262 18.48H166.702V15.04H158.302V9.2H154.182V15.04H149.182V18.48H153.182L154.182 19.48ZM193.712 29.12L191.712 26.4C189.472 28.08 187.352 28.88 184.912 28.88C181.632 28.88 179.752 27.32 178.992 25.48L179.792 24.92H194.272C194.272 19.8 191.192 14.48 184.432 14.48C178.872 14.48 174.752 18.4 174.752 23.52C174.752 28.64 178.872 32.56 184.912 32.56C187.832 32.56 190.752 31.48 193.712 29.12ZM179.792 21.76L179.072 21.24C179.992 19.2 182.152 18.12 184.432 18.12C186.752 18.12 188.592 19.36 189.432 20.92L189.072 21.76H179.792ZM219.283 20.52C218.363 16.96 216.403 14.48 212.763 14.48C210.123 14.48 207.843 15.96 205.843 18.16H204.923V15.04H200.843V32H204.923V23.76C207.843 20.32 209.923 18.32 212.003 18.32C214.203 18.32 215.003 20.08 215.563 22.16L219.283 20.52ZM229.013 22.76C230.573 20.36 232.453 18.2 234.853 18.2C237.493 18.2 238.253 19.96 238.253 22.32V32H242.333V21.44C242.333 16.92 239.453 14.48 235.453 14.48C233.213 14.48 231.293 15.48 229.973 16.96H229.013V15.04H224.933V32H229.013V22.76ZM258.183 11.88C260.183 11.88 261.663 10.4 261.663 8.52C261.663 6.52 260.183 5.04 258.183 5.04C256.303 5.04 254.823 6.52 254.823 8.52C254.823 10.4 256.303 11.88 258.183 11.88ZM260.783 27.6V15.04H249.423V18.4H256.143L257.183 19.44V27.6L256.143 28.64H249.423V32H267.343V28.64H261.823L260.783 27.6ZM277.033 19.48V24.68C277.033 30.16 280.313 32.56 284.953 32.56C288.153 32.56 291.113 30.84 293.073 28.08L290.633 25.28C288.913 27.56 287.473 28.88 284.993 28.88C282.193 28.88 281.113 27.04 281.113 24.12V19.48L282.113 18.48H289.553V15.04H281.153V9.2H277.033V15.04H272.033V18.48H276.033L277.033 19.48ZM305.164 32.92C303.924 35.28 302.924 36.36 301.164 36.36C299.924 36.36 299.164 35.8 298.284 34.16L295.124 36.48C296.484 39.12 298.764 40.08 301.124 40.08C305.244 40.08 307.204 36.6 309.324 32.48L318.284 15.04H313.764L307.804 27.08H306.604L300.644 15.04H296.044L305.164 32.92Z" fill="white"/>
</svg>
