<svg width="250" height="43" viewBox="0 0 250 43" fill="none" xmlns="http://www.w3.org/2000/svg">
<path d="M0.48 35H11.2V24.6H20V18.04H11.2V12.92H21.28V6.2H0.48V35ZM45.7766 27.32V27.16H35.6966V27.32C35.6966 28.44 35.0566 29.08 33.9366 29.08H33.6166C32.4966 29.08 31.8566 28.44 31.8566 27.32V25.88H45.7766V20.92C45.7766 15.64 42.5766 13.08 36.2566 13.08H30.9766C24.6566 13.08 21.4566 15.8 21.4566 21.56V26.68C21.4566 32.44 24.6566 35.16 30.9766 35.16H36.2566C42.5766 35.16 45.7766 32.6 45.7766 27.32ZM31.6966 20.92C31.6966 19.76 32.2966 19.16 33.4566 19.16H33.7766C34.9366 19.16 35.5366 19.76 35.5366 20.92V21.72H31.6966V20.92ZM71.05 27.32V27.16H60.97V27.32C60.97 28.44 60.33 29.08 59.21 29.08H58.89C57.77 29.08 57.13 28.44 57.13 27.32V25.88H71.05V20.92C71.05 15.64 67.85 13.08 61.53 13.08H56.25C49.93 13.08 46.73 15.8 46.73 21.56V26.68C46.73 32.44 49.93 35.16 56.25 35.16H61.53C67.85 35.16 71.05 32.6 71.05 27.32ZM56.97 20.92C56.97 19.76 57.57 19.16 58.73 19.16H59.05C60.21 19.16 60.81 19.76 60.81 20.92V21.72H56.97V20.92ZM72.0034 35H82.4034V6.2H72.0034V35ZM89.9331 35H111.213V28.12H100.653V23.48H109.453V17.08H100.653V12.92H110.893V6.2H89.9331V35ZM120.413 35H126.333V29.24H125.853C124.653 29.24 124.093 28.68 124.093 27.48V19.64H126.333V13.24H124.093V6.2H113.693V13.24H111.453V19.64H113.693V28.6C113.693 32.84 115.853 35 120.413 35ZM151.597 27.32V27.16H141.517V27.32C141.517 28.44 140.877 29.08 139.757 29.08H139.437C138.317 29.08 137.677 28.44 137.677 27.32V25.88H151.597V20.92C151.597 15.64 148.397 13.08 142.077 13.08H136.797C130.477 13.08 127.277 15.8 127.277 21.56V26.68C127.277 32.44 130.477 35.16 136.797 35.16H142.077C148.397 35.16 151.597 32.6 151.597 27.32ZM137.517 20.92C137.517 19.76 138.117 19.16 139.277 19.16H139.597C140.757 19.16 141.357 19.76 141.357 20.92V21.72H137.517V20.92ZM152.55 35H162.95V22.68C162.95 21.24 163.59 20.6 165.11 20.6H165.91C167.43 20.6 168.07 21.24 168.23 22.36H171.75V13.24H168.71C165.15 13.24 163.47 14.88 162.95 17.96V13.24H152.55V35ZM172.55 35H182.95V20.92C182.95 19.8 183.51 19.16 184.63 19.16H184.95C186.07 19.16 186.63 19.8 186.63 20.92V35H197.03V19.32C197.03 15.56 194.71 13.08 190.47 13.08H188.39C185.23 13.08 183.71 14.48 182.95 16.8V13.24H172.55V35ZM197.98 12.28H208.38V6.2H197.98V12.28ZM197.98 35H208.38V13.24H197.98V35ZM218.147 35H224.067V29.24H223.587C222.387 29.24 221.827 28.68 221.827 27.48V19.64H224.067V13.24H221.827V6.2H211.427V13.24H209.187V19.64H211.427V28.6C211.427 32.84 213.587 35 218.147 35ZM235.251 35L235.211 35.16C235.011 36.04 234.531 36.6 233.011 36.6H229.971V42.04H234.931C241.331 42.04 243.331 40.12 244.531 34.68L249.331 13.24H240.051L237.691 27.84L235.411 13.24H224.851L230.131 35H235.251Z" fill="white"/>
</svg>
