<svg width="320" height="41" viewBox="0 0 320 41" fill="none" xmlns="http://www.w3.org/2000/svg">
<path d="M8.04 32V22.16H20.28V18.4H8.04V14.16L9.24 12.96H22.04V9.2H4V32H8.04ZM32.2103 27.04V22.16H44.4503V18.4H32.2103V14.16L33.4103 12.96H46.2103V9.2H28.1703V32H46.6103V28.24H33.4103L32.2103 27.04ZM56.7806 27.04V22.16H69.0206V18.4H56.7806V14.16L57.9806 12.96H70.7806V9.2H52.7406V32H71.1806V28.24H57.9806L56.7806 27.04ZM82.3109 27.04V9.2H78.2709V32H95.1109V28.24H83.5109L82.3109 27.04ZM130.492 27.04V22.16H142.732V18.4H130.492V14.16L131.692 12.96H144.492V9.2H126.452V32H144.892V28.24H131.692L130.492 27.04ZM162.982 12.96H170.342V9.2H149.062V12.96H156.422L157.622 14.16V32H161.782V14.16L162.982 12.96ZM179.632 27.04V22.16H191.872V18.4H179.632V14.16L180.832 12.96H193.632V9.2H175.592V32H194.032V28.24H180.832L179.632 27.04ZM204.243 23.24H208.723L215.083 32H219.963L213.843 23.64V22.72C217.122 21.8 218.923 19.6 218.923 16.24C218.923 11.68 215.523 9.2 209.683 9.2H200.163V32H204.243V23.24ZM209.603 12.96C213.083 12.96 214.723 14.16 214.723 16.24C214.723 18.28 213.083 19.48 209.603 19.48H204.243V14.16L205.443 12.96H209.603ZM242.813 32V9.2H239.013V24.44H237.813L229.533 9.2H224.013V32H227.813V15.52H229.013L238.133 32H242.813ZM259.983 27.04V14.16L261.183 12.96H266.223V9.2H249.743V12.96H254.783L255.983 14.16V27.04L254.783 28.24H249.743V32H266.223V28.24H261.183L259.983 27.04ZM285.833 12.96H293.193V9.2H271.913V12.96H279.273L280.473 14.16V32H284.633V14.16L285.833 12.96ZM309.124 23.08L318.684 9.2H313.804L307.764 17.92H306.404L300.364 9.2H295.484L305.044 23.08V32H309.124V23.08Z" fill="white"/>
</svg>
