<svg width="1176" height="136" viewBox="0 0 1176 136" fill="none" xmlns="http://www.w3.org/2000/svg">
<g clip-path="url(#clip0)">
<path d="M0 108.72H47.716V71.272H93.6201V45.904H47.716V26.576H99.6603V0H0V108.72ZM144.232 109.324H170.808C197.384 109.324 213.088 99.66 214.296 79.124H170.204C169.6 84.56 165.976 87.58 159.936 87.58H157.52C149.668 87.58 145.44 83.352 145.44 74.896V73.688H214.296V64.024C214.296 38.656 196.78 25.972 170.808 25.972H143.628C114.636 25.972 99.5363 39.26 99.5363 61.004V75.5C99.5363 97.244 115.24 109.324 144.232 109.324ZM156.312 47.716H159.03C165.372 47.716 169.449 51.491 169.902 58.588H145.138C145.591 51.491 148.913 47.716 156.312 47.716ZM262.643 109.324H289.219C315.795 109.324 331.499 99.66 332.707 79.124H288.615C288.011 84.56 284.387 87.58 278.347 87.58H275.931C268.079 87.58 263.851 83.352 263.851 74.896V73.688H332.707V64.024C332.707 38.656 315.191 25.972 289.219 25.972H262.039C233.047 25.972 217.947 39.26 217.947 61.004V75.5C217.947 97.244 233.651 109.324 262.643 109.324ZM274.723 47.716H277.441C283.783 47.716 287.86 51.491 288.313 58.588H263.549C264.002 51.491 267.324 47.716 274.723 47.716ZM336.358 108.72H382.866V0H336.358V108.72ZM418.494 108.72H520.57V80.936H466.21V65.232H510.906V41.072H466.21V26.576H519.362V0H418.494V108.72ZM562.922 108.72H596.142V86.976H591.31C585.27 86.976 581.646 83.956 581.646 77.916V51.34H596.142V26.576H581.646V0H535.138V26.576H521.85V51.34H535.138V83.352C535.138 99.056 543.594 108.72 562.922 108.72ZM643.83 109.324H670.406C696.982 109.324 712.686 99.66 713.894 79.124H669.802C669.198 84.56 665.574 87.58 659.534 87.58H657.118C649.266 87.58 645.038 83.352 645.038 74.896V73.688H713.894V64.024C713.894 38.656 696.378 25.972 670.406 25.972H643.226C614.234 25.972 599.134 39.26 599.134 61.004V75.5C599.134 97.244 614.838 109.324 643.83 109.324ZM655.91 47.716H658.628C664.97 47.716 669.047 51.491 669.5 58.588H644.736C645.189 51.491 648.511 47.716 655.91 47.716ZM717.545 108.72H764.053V68.252C764.053 60.4 767.375 56.776 775.227 56.776H781.267C789.723 56.776 792.743 59.796 793.649 65.836H808.145V26.576H790.629C774.623 26.576 766.922 34.881 764.053 48.622V26.576H717.545V108.72ZM811.182 108.72H857.69V59.192C857.69 51.944 861.918 48.32 867.958 48.32H870.978C877.018 48.32 881.246 51.944 881.246 59.192V108.72H927.754V54.36C927.754 38.052 916.882 25.972 896.95 25.972H883.058C867.354 25.972 861.314 33.22 857.69 41.676V26.576H811.182V108.72ZM931.363 22.952H977.871V0H931.363V22.952ZM931.363 108.72H977.871V26.576H931.363V108.72ZM1021.96 108.72H1055.18V86.976H1050.35C1044.31 86.976 1040.69 83.956 1040.69 77.916V51.34H1055.18V26.576H1040.69V0H994.184V26.576H980.896V51.34H994.184V83.352C994.184 99.056 1002.64 108.72 1021.96 108.72ZM1087.77 135.296H1104.68C1131.26 135.296 1139.72 126.84 1146.96 106.304L1175.35 26.576H1137.3L1120.99 79.879L1104.68 26.576H1056.97L1088.98 108.72H1108.31C1107.1 113.552 1104.68 115.968 1098.04 115.968H1087.77V135.296Z" fill="white"/>
</g>
<defs>
<clipPath id="clip0">
<rect width="1175.35" height="135.296" fill="white"/>
</clipPath>
</defs>
</svg>
