<svg width="309" height="56" viewBox="0 0 309 56" fill="none" xmlns="http://www.w3.org/2000/svg">
<path fill-rule="evenodd" clip-rule="evenodd" d="M23 42.9686C28.5228 42.9686 33 38.4633 33 32.9057C33 27.3481 28.5228 22.8428 23 22.8428C17.4772 22.8428 13 27.3481 13 32.9057C13 38.4633 17.4772 42.9686 23 42.9686ZM23 48C31.2843 48 38 41.2421 38 32.9057C38 24.5693 31.2843 17.8113 23 17.8113C14.7157 17.8113 8 24.5693 8 32.9057C8 41.2421 14.7157 48 23 48Z" fill="#FF4500"/>
<path fill-rule="evenodd" clip-rule="evenodd" d="M23 33.1572C28.5228 33.1572 33 28.6519 33 23.0943C33 17.5368 28.5228 13.0314 23 13.0314C17.4772 13.0314 13 17.5368 13 23.0943C13 28.6519 17.4772 33.1572 23 33.1572ZM23 38.1887C31.2843 38.1887 38 31.4307 38 23.0943C38 14.758 31.2843 8 23 8C14.7157 8 8 14.758 8 23.0943C8 31.4307 14.7157 38.1887 23 38.1887Z" fill="#FF4500"/>
<path d="M55.68 36.5V19.34H72.072V23.396H61.824V26.732H70.728V30.692H61.824V36.5H55.68ZM75.5775 36.5V19.34H92.3775V23.3H81.6735V25.916H90.8655V29.756H81.6735V32.54H92.8815V36.5H75.5775ZM96.4828 36.5V19.34H113.283V23.3H102.579V25.916H111.771V29.756H102.579V32.54H113.787V36.5H96.4828ZM117.388 36.5V19.34H123.532V32.42H132.388V36.5H117.388ZM142.23 36.5V19.34H159.03V23.3H148.326V25.916H157.518V29.756H148.326V32.54H159.534V36.5H142.23ZM167.863 36.5V23.42H161.863V19.34H180.079V23.42H174.031V36.5H167.863ZM183.103 36.5V19.34H199.903V23.3H189.199V25.916H198.391V29.756H189.199V32.54H200.407V36.5H183.103ZM204.032 36.5V19.34H213.848C219.32 19.34 222.2 21.236 222.2 24.908V25.004C222.2 27.668 220.736 28.892 218.624 29.756L223.616 36.5H216.92L212.984 31.268H210.152V36.5H204.032ZM210.152 27.452H213.392C215.144 27.452 216.152 26.804 216.152 25.388V25.292C216.152 23.828 215.096 23.276 213.44 23.276H210.152V27.452ZM226.297 36.5V19.34H233.425L241.177 29.18V19.34H246.409V36.5H240.289L231.553 25.388V36.5H226.297ZM250.814 36.5V19.34H257.03V36.5H250.814ZM266.179 36.5V23.42H260.179V19.34H278.395V23.42H272.347V36.5H266.179ZM287.6 36.5V29.228L280.112 19.34H286.832L290.936 24.86L294.992 19.34H300.92L293.768 29.228V36.5H287.6Z" fill="white"/>
</svg>
